<?xml version="1.0" standalone="no"?>
<!DOCTYPE svg PUBLIC "-//W3C//DTD SVG 1.1//EN" "http://www.w3.org/Graphics/SVG/1.1/DTD/svg11.dtd">
<svg xmlns="http://www.w3.org/2000/svg">
<metadata>Copyright (C) 2020 by original authors @ fontello.com</metadata>
<defs>
<font id="mamikos-icon" horiz-adv-x="1000" >
<font-face font-family="mamikos-icon" font-weight="400" font-stretch="normal" units-per-em="1000" ascent="850" descent="-150" />
<missing-glyph horiz-adv-x="1000" />
<glyph glyph-name="edit" unicode="&#xe800;" d="M83 39c-2-25 6-50 23-69 16-19 39-31 64-34h593c24 3 47 15 64 34 16 19 24 44 22 69l0 359c0 4-1 9-2 12-2 4-4 8-7 10-3 3-6 6-10 7-4 2-8 3-12 3-4 0-8-1-12-3-4-1-7-4-10-6-3-3-5-7-7-11-2-3-2-7-2-12l-1-359c0-23-12-40-23-40h-593c-12 0-24 17-24 40l1 555c0 23 12 40 23 40h368c8 0 16 3 22 9 6 6 9 14 9 22 0 8-3 16-9 22-6 6-14 9-22 9h-368c-25-2-48-14-64-33-16-19-24-44-22-69l-1-555z m745 359c0 0 0 0 0 0z m-493-246c-4 0-9 1-13 3-4 2-8 5-11 8-3 4-5 8-6 12-1 5-1 9-1 14 5 30 24 133 57 166l380 380c20 18 46 29 73 29 27 0 53-11 72-29 20-19 30-46 30-73 0-27-10-53-30-73l-380-380c-32-32-135-51-166-56-1 0-3-1-5-1z m479 550c-6 0-11-1-16-3-5-2-9-5-13-8l-380-380c-15-28-25-57-30-88 30 5 60 16 87 31l380 380c4 3 7 8 9 13 2 5 3 10 3 15 0 5-1 11-3 16-2 4-5 9-9 13-4 3-8 6-13 8-5 2-10 3-15 3v0z m-261-433c-9 0-17 3-23 9l-101 101c-6 6-9 14-9 22 0 8 3 16 9 22 6 6 14 9 22 9 9 0 17-3 22-9l102-101c4-4 7-10 8-16 1-6 1-12-2-18-2-6-6-11-11-14-5-3-11-5-17-5h0z" horiz-adv-x="1000" />

<glyph glyph-name="copy" unicode="&#xe801;" d="M318 605l484 0c10-1 21-4 30-9 9-4 18-11 24-19 7-8 12-18 15-28 4-10 5-20 4-31l-1-456c1-11 0-21-3-31-3-10-8-20-15-28-7-8-15-15-25-19-9-5-19-8-30-9h-483c-11 1-21 4-30 9-10 4-18 11-25 19-7 8-12 18-15 28-3 10-4 20-3 31l0 456c-1 11 0 21 4 31 3 10 8 20 15 28 6 8 15 15 24 19 9 5 20 8 30 9z m483-574c7 0 17 12 17 31l1 456c0 19-10 31-17 31l-484 0c-7 0-17-12-17-31l0-456c0-19 10-31 17-31l483 0z m-595 694l448 0c8 0 15-3 20-8 5-6 8-13 8-20 0-8-3-15-8-20-5-5-12-8-20-8l-448 0c-11 0-24-17-24-40l0-417c0-7-3-14-9-20-5-5-12-8-20-8-3 0-7 1-10 2-4 2-7 4-9 6-3 3-5 6-6 10-2 3-3 7-3 10l1 417c-2 23 5 46 20 64 15 18 37 30 60 32z" horiz-adv-x="1000" />

<glyph glyph-name="checkmark" unicode="&#xe802;" d="M883 554l-470-491c-4-5-10-8-16-11-7-2-13-4-20-4-7 0-13 2-20 4-6 3-11 6-16 11-5 5-9 11-11 17-3 6-4 13-4 20 0 6 1 13 4 19 2 6 6 12 11 17l470 491c10 9 23 15 36 15 14 0 27-6 36-15 10-10 15-23 15-37 0-13-5-26-15-36z m-542-491l-243 257c-4 5-8 10-11 16-2 7-4 13-4 20 0 7 2 14 4 20 3 6 7 12 11 16 5 5 11 9 17 12 6 2 13 3 20 3 6 0 13-1 19-3 7-3 12-7 17-12l243-256c9-10 15-23 15-36 0-14-6-27-15-37-10-9-23-15-37-15-13 0-26 6-36 15z" horiz-adv-x="1000" />

<glyph glyph-name="arrow-down" unicode="&#xe803;" d="M486 207c4-4 9-6 14-6 5 0 10 2 14 6l258 258c4 4 6 9 6 14 0 5-2 10-6 14-4 4-9 6-14 6h-516c-5 0-10-2-14-6-3-4-6-9-6-14 0-5 3-10 6-14l258-258z" horiz-adv-x="1000" />

<glyph glyph-name="billing" unicode="&#xe804;" d="M292 683v-666h416v666h-416z m416 84c46 0 84-38 84-83v-668c0-46-38-83-84-83h-416c-46 0-84 38-84 83v668c0 46 38 83 84 83h416z m-208-542h-125c-23 0-42-19-42-42 0-21 16-39 37-41l5 0h125c22 0 39 16 41 37l1 4-1 5c-2 20-17 35-36 37l-5 0z m125 0l-5 0c-21-3-37-20-37-42 0-21 16-39 37-41l5 0 5 0c19 2 34 17 36 37l1 4-1 5c-2 20-17 35-36 37l-5 0z m-125 125h-125c-23 0-42-19-42-42 0-21 16-39 37-41l5 0h125c22 0 39 16 41 37l1 4-1 5c-2 20-17 35-36 37l-5 0z m125 0l-5 0c-21-3-37-20-37-42 0-21 16-39 37-41l5 0 5 0c19 2 34 17 36 37l1 4-1 5c-2 20-17 35-36 37l-5 0z m-125 125h-125c-23 0-42-19-42-42 0-21 16-39 37-41l5 0h125c22 0 39 16 41 37l1 4-1 5c-2 20-17 35-36 37l-5 0z m125 0l-5 0c-21-3-37-20-37-42 0-21 16-39 37-41l5 0 5 0c19 2 34 17 36 37l1 4-1 5c-2 20-17 35-36 37l-5 0z m0 125h-250c-23 0-42-19-42-42 0-21 16-39 37-41l5 0h250c21 0 39 16 41 37l1 4-1 5c-2 20-17 35-36 37l-5 0z" horiz-adv-x="1000" />

<glyph glyph-name="board" unicode="&#xe805;" d="M167 100h667l-1 500h-667l1-500z m667 583c46 0 83-37 83-83v-500c0-46-38-83-83-83h-668c-45 0-83 37-83 83v500c0 46 38 83 83 83h668z m-417-83h-84v-500h84v500z m250 0h-84v-500h84v500z" horiz-adv-x="1000" />

<glyph glyph-name="checked-box" unicode="&#xe806;" d="M875 642c0 46-37 83-83 83h-584c-46 0-83-37-83-83v-584c0-46 37-83 83-83h584c46 0 83 37 83 83v584z m-424-331l167 167c16 16 42 16 59 0 16-17 16-43 0-59l-197-196c-16-17-42-17-58 0l-99 98c-16 16-16 42 0 59 17 16 43 16 59 0l69-69z" horiz-adv-x="1000" />

<glyph glyph-name="chevron-up-circle" unicode="&#xe807;" d="M500 725c207 0 375-168 375-375 0-207-168-375-375-375-207 0-375 168-375 375 0 207 168 375 375 375z m0-250c-12 0-24-4-32-13l-122-123c-17-17-17-43 0-60 16-16 42-16 58 0l96 97 96-97c16-16 42-16 59 0 16 16 16 43 0 59l-123 124c-9 9-21 13-32 13z" horiz-adv-x="1000" />

<glyph glyph-name="cross-circle" unicode="&#xe808;" d="M500 725c207 0 375-168 375-375 0-207-168-375-375-375-207 0-375 168-375 375 0 207 168 375 375 375z m173-202c-18 18-46 19-65 4l-4-4-104-104-104 104c-19 19-50 19-69 0-18-18-19-46-4-65l4-4 104-104-104-104c-19-19-19-50 0-69 9-10 22-14 35-14 10 0 21 3 30 10l4 4 104 104 104-104c9-10 22-14 35-14 12 0 25 4 34 14 18 18 19 46 4 65l-4 4-104 104 104 104c19 19 19 50 0 69z" horiz-adv-x="1000" />

<glyph glyph-name="add" unicode="&#xe809;" d="M500 600c23 0 42-19 42-42v-166h166c23 0 42-19 42-42 0-23-19-42-42-42h-166v-166c0-23-19-42-42-42-23 0-42 19-42 42v166h-166c-23 0-42 19-42 42 0 23 19 42 42 42h166v166c0 23 19 42 42 42z" horiz-adv-x="1000" />

<glyph glyph-name="file" unicode="&#xe80a;" d="M708 433v-375h-416v584h249v-104c0-35 28-62 63-62h187v21c0 13-5 24-15 32l-211 177c-15 12-34 19-53 19h-220c-46 0-84-37-84-83v-584c0-46 38-83 84-83h416c46 0 84 37 84 83v375h-84z m-250-208c22 0 39-16 42-37l0-5c0-23-18-41-42-41h-83c-23 0-42 18-42 41 0 23 19 42 42 42h83z m167 125c21 0 39-16 41-37l1-5c0-23-19-41-42-41h-250c-23 0-42 18-42 41 0 23 19 42 42 42h250z" horiz-adv-x="1000" />

<glyph glyph-name="home" unicode="&#xe80b;" d="M268-25c-62 0-113 48-116 109l-1 7 0 225-1-1c-14-14-36-15-52-4l-3 4c-14 13-15 36-3 51l3 3 323 322c43 44 113 45 159 5l5-5 323-322c16-15 16-39 0-54-14-14-36-15-51-4l-4 4-1 1 0-225c0-62-49-112-110-116l-6 0h-465z m259 661c-14 14-35 15-51 4l-3-4-244-243 0-302c0-20 15-36 34-38l5-1h155v174c0 43 34 77 77 77 43 0 78-34 78-77v-174h155c19 0 36 15 38 34l0 5 0 302-244 243z" horiz-adv-x="1000" />

<glyph glyph-name="home-circle" unicode="&#xe80c;" d="M500 767c230 0 417-187 417-417 0-230-187-417-417-417-230 0-417 187-417 417 0 230 187 417 417 417z m-87-134l-214-220c-16-17-15-43 1-59 14-14 34-16 50-6l0-123c0-69 56-125 125-125h250c69 0 125 56 125 125l0 122c16-9 36-7 50 7 16 16 17 42 1 59l-211 217c-48 50-128 51-177 3z m117-61l137-141v-206c0-23-19-42-42-42h-62v105c0 34-28 62-63 62-32 0-59-25-62-56l0-6v-105h-63c-23 0-42 19-42 42v206l138 142c16 16 43 15 59-1z" horiz-adv-x="1000" />

<glyph glyph-name="info" unicode="&#xe80d;" d="M500 642c161 0 292-131 292-292 0-161-131-292-292-292-161 0-292 131-292 292 0 161 131 292 292 292z m0-63c-127 0-229-102-229-229 0-127 102-229 229-229 127 0 229 102 229 229 0 127-102 229-229 229z m0-208c23 0 42-19 42-42v-83c0-23-19-42-42-42-23 0-42 19-42 42v83c0 23 19 42 42 42z m0 125c23 0 42-19 42-42 0-23-19-41-42-41-23 0-42 18-42 41 0 23 19 42 42 42z" horiz-adv-x="1000" />

<glyph glyph-name="phone" unicode="&#xe80e;" d="M329 607c-71-89-25-207 12-295 17-43 44-85 67-119 41-59 133-172 246-155 49 8 106 65 67 102l-78 81c0 0-22 18-49 3l-43-26c0 0-18-8-34 12-48 57-83 116-107 187-10 28 7 35 7 35l32 18c26 16 22 44 22 44l-19 114c-5 24-25 34-47 34-27 0-59-14-76-35z" horiz-adv-x="1000" />

<glyph glyph-name="user" unicode="&#xe80f;" d="M666 350c47 0 84-37 84-84v-185c0-142-500-142-500 0v186c0 46 38 83 84 83h332z m-166 375c92 0 167-75 167-167 0-92-75-166-167-166-92 0-167 74-167 166 0 92 75 167 167 167z" horiz-adv-x="1000" />

<glyph glyph-name="user-circle-fill" unicode="&#xe810;" d="M500 725c207 0 375-168 375-375 0-207-168-375-375-375-207 0-375 168-375 375 0 207 168 375 375 375z m125-458h-250c-44 0-80-34-83-77l0-7v-36c53-54 127-89 209-89 77 0 147 30 199 79l8 8v38c0 44-34 80-77 83l-6 1z m-125 333c-69 0-125-56-125-125 0-69 56-125 125-125 69 0 125 56 125 125 0 69-56 125-125 125z" horiz-adv-x="1000" />

<glyph glyph-name="user-circle-outline" unicode="&#xe811;" d="M500 725c207 0 375-168 375-375 0-184-132-336-306-369l-13-2-13-2-16-1-5 0-9-1c-4 0-8 0-13 0l-16 0-6 1-8 0-13 1-15 2c-180 28-317 184-317 371 0 207 168 375 375 375z m0-83c-161 0-292-131-292-292 0-79 32-151 84-204l0 58c0 55 43 100 97 104l7 0h208c55 0 101-43 104-97l0-7 0-58c52 53 84 125 84 204 0 161-131 292-292 292z m0-42c69 0 125-56 125-125 0-69-56-125-125-125-69 0-125 56-125 125 0 69 56 125 125 125z" horiz-adv-x="1000" />

<glyph glyph-name="email" unicode="&#xe812;" d="M189 700c-49 0-89-39-89-86v-428c0-47 40-86 89-86h622c49 0 89 39 89 86v428c0 47-40 86-89 86h-622z m44-86h530l-230-221c-19-19-50-19-70 0l-230 221z m578-75v-353h-622v350l211-204c54-52 142-52 196 0l215 207z" horiz-adv-x="1000" />

<glyph glyph-name="arrow-right-long" unicode="&#xe813;" d="M208 350c0 21 16 39 37 41l5 1 396 0-50 50c-16 16-17 41-4 58l4 4c16 16 40 17 57 4l4-4 122-123c16-16 17-41 4-58l-4-4-122-123c-17-17-44-17-61 0-16 16-17 41-4 58l4 4 50 50-396 0c-21 0-39 16-41 37l-1 5z" horiz-adv-x="1000" />

<glyph glyph-name="bookmark" unicode="&#xe814;" d="M652 37l-152 128-152-128c-52-44-140-13-140 57v477c0 64 58 112 125 112h334c67 0 125-48 125-112v-477c0-70-88-101-140-57z m56 63v471c0 15-17 29-41 29h-334c-24 0-41-14-41-29v-471 0l208 174 208-174z" horiz-adv-x="1000" />

<glyph glyph-name="chevron-right" unicode="&#xe815;" d="M625 392c16-16 16-43 0-59l-192-191c-16-16-42-16-58 0-16 16-16 42 0 58l163 162-163 163c-16 16-16 42 0 58 16 16 42 16 58 0l192-191z" horiz-adv-x="1000" />

<glyph glyph-name="edit-1" unicode="&#xe816;" d="M200 208l175-176-158-32c-28-6-53 17-50 44l1 5 32 159z m480 475c19 0 37-6 53-19l6-5 88-88c31-31 32-80 5-113l-5-5-407-407-206 206 407 407c16 16 37 24 59 24z m88-171l-88 88-354-354 88-88 354 354z" horiz-adv-x="1000" />

<glyph glyph-name="lightbulb" unicode="&#xe817;" d="M500 683c-138 0-250-111-250-250 0-92 95-186 95-186 17-16 30-47 30-67 0-21 19-38 42-38h166c23 0 42 17 42 38 0 20 13 51 30 67 0 0 95 94 95 186 0 139-112 250-250 250z m0-83c92 0 167-75 167-167 0-42-48-104-71-127-21-21-38-51-47-81h-98c-9 30-26 60-47 81-23 23-71 85-71 127 0 92 75 167 167 167z m124-542c0 23-19 42-42 42h-167c-23 0-41-19-41-42v0c0-23 18-41 41-41h167c23 0 42 18 42 41v0z" horiz-adv-x="1000" />

<glyph glyph-name="send" unicode="&#xe818;" d="M850 642c57 0 86-66 52-109l-4-5-500-533c-37-40-103-16-107 38l0 5v295l-190 202c-37 38-12 102 39 106l6 1h704z m-39-85h-617l147-155 141 69c20 9 42 2 53-16l3-4c9-20 2-44-16-55l-4-2-144-70 0-233 437 466z" horiz-adv-x="1000" />

<glyph glyph-name="app-drawer" unicode="&#xe819;" d="M291 183c24 0 42-18 42-42v-82c0-23-18-42-42-42h-82c-23 0-42 18-42 42v82c0 24 18 42 42 42h82z m250 0c24 0 42-18 42-42v-82c0-23-18-42-42-42h-82c-23 0-42 18-42 42v82c0 24 18 42 42 42h82z m250 0c24 0 42-18 42-42v-82c0-23-18-42-42-42h-82c-23 0-42 18-42 42v82c0 24 18 42 42 42h82z m-500 250c24 0 42-18 42-42v-82c0-23-18-42-42-42h-82c-23 0-42 18-42 42v82c0 24 18 42 42 42h82z m250 0c24 0 42-18 42-42v-82c0-23-18-42-42-42h-82c-23 0-42 18-42 42v82c0 24 18 42 42 42h82z m250 0c24 0 42-18 42-42v-82c0-23-18-42-42-42h-82c-23 0-42 18-42 42v82c0 24 18 42 42 42h82z m-500 250c24 0 42-18 42-42v-82c0-23-18-42-42-42h-82c-23 0-42 18-42 42v82c0 24 18 42 42 42h82z m250 0c24 0 42-18 42-42v-82c0-23-18-42-42-42h-82c-23 0-42 18-42 42v82c0 24 18 42 42 42h82z m250 0c24 0 42-18 42-42v-82c0-23-18-42-42-42h-82c-23 0-42 18-42 42v82c0 24 18 42 42 42h82z" horiz-adv-x="1000" />

<glyph glyph-name="room-inside" unicode="&#xe81a;" d="M500-67c-7 0-13 2-19 5l-375 187c-7 4-12 9-16 16-4 6-7 14-7 22v375c0 7 3 15 7 21 4 7 9 12 16 16l375 187c6 3 12 5 19 5 6 0 13-2 18-5l375-187c7-4 13-9 17-16 4-6 6-14 6-21v-375c0-8-2-16-6-22-4-7-10-12-17-16l-375-187c-5-3-12-5-18-5z m-333 255l333-166 333 166v324l-333 166-333-166v-324z m-42-67c-7 0-15 2-21 5-7 4-12 9-16 16-5 10-6 21-2 31 3 11 10 20 20 25l352 178v333c0 11 4 22 12 30 8 7 19 12 30 12 11 0 21-5 29-12 8-8 12-19 12-30v-359c0-8-2-15-6-22-4-6-10-12-17-15l-374-188c-6-3-12-4-19-4z m749 0c-6 0-13 1-18 4l-375 188c-9 5-16 14-19 24-2 10-1 21 3 30 5 10 13 17 23 21 10 3 21 3 30-1l375-187c5-3 10-6 14-11 3-4 6-9 8-14 1-6 2-11 1-17 0-6-2-11-5-16-3-7-9-12-15-16-7-3-14-5-22-5z m-630 77c-8 0-16 3-22 9-6 6-9 14-9 22v241c0 5 2 11 5 16 3 5 7 9 12 12l121 60c4 3 10 4 15 4 5 0 10-1 15-4 5-2 8-6 11-11 3-5 4-10 4-15v-241c0-8-3-16-9-22-6-6-14-9-22-9-8 0-16 3-22 9-6 6-9 14-9 22v188l-59-29v-221c0-4-1-8-2-12-2-4-4-7-7-10-3-3-6-5-10-7-4-1-8-2-12-2z" horiz-adv-x="1000" />

<glyph glyph-name="burger-menu" unicode="&#xe81b;" d="M750 225c21 0 39-16 41-37l1-5c0-23-19-41-42-41h-500c-23 0-42 18-42 41 0 23 19 42 42 42h500z m0 167c21 0 39-16 41-37l1-5c0-23-19-42-42-42h-500c-23 0-42 19-42 42 0 23 19 42 42 42h500z m0 166c21 0 39-16 41-36l1-5c0-23-19-42-42-42h-500c-23 0-42 19-42 42 0 23 19 41 42 41h500z" horiz-adv-x="1000" />

<glyph glyph-name="calendar" unicode="&#xe81c;" d="M667 683c0 23 18 42 41 42 22 0 39-16 42-37l0-5v-41h42c44 0 80-34 83-77l0-6v-501c0-44-34-80-77-83l-6 0h-584c-44 0-80 34-83 77l0 6v501c0 43 34 79 77 82l6 1h42v41c0 23 19 42 42 42 21 0 39-16 41-37l0-5v-41h334v41z m114-232h-562v-339c0-22 16-39 36-41l5-1h480c21 0 39 16 41 37l0 5v339z m-406-226v-83h-83v83h83z m167 0v-83h-84v83h84z m166 0v-83h-83v83h83z m-333 167v-84h-83v84h83z m333 0v-84h-83v84h83z m-166 0v-84h-84v84h84z" horiz-adv-x="1000" />

<glyph glyph-name="calendar-filled" unicode="&#xe81d;" d="M208 642v-42c0-44 34-80 77-83l7 0 6 0c41 3 74 36 77 77l0 6v42h250v-42c0-44 34-80 77-83l6 0 7 0c41 3 73 36 76 77l1 6v42c44 0 80-34 83-77l0-6v-501c0-44-34-80-77-83l-6 0h-584c-44 0-80 34-83 77l0 6v501c0 43 34 79 77 82l6 1z m167-417h-83v-83h83v83z m167 0h-84v-83h84v83z m166 0h-83v-83h83v83z m-333 167h-83v-84h83v84z m167 0h-84v-84h84v84z m166 0h-83v-84h83v84z m0 333c22 0 39-16 42-37l0-5v-83c0-23-19-42-42-42-23 0-41 19-41 42v83c0 23 18 42 41 42z m-458-42c0 23 19 42 42 42 21 0 39-16 41-37l0-5v-83c0-23-18-42-41-42-23 0-42 19-42 42v83z" horiz-adv-x="1000" />

<glyph glyph-name="checked-circle" unicode="&#xe81e;" d="M500-67c230 0 417 187 417 417 0 230-187 417-417 417-230 0-417-187-417-417 0-230 187-417 417-417z m-49 378l167 167c16 16 42 16 59 0 16-17 16-43 0-59l-197-196c-16-17-42-17-58 0l-99 98c-16 16-16 42 0 59 17 16 43 16 59 0l69-69z" horiz-adv-x="1000" />

<glyph glyph-name="location" unicode="&#xe81f;" d="M500 725c138 0 250-112 250-250 0-138-155-500-250-500-95 0-250 362-250 500 0 138 112 250 250 250z m0-132c-67 0-121-55-121-122 0-67 54-121 121-121 67 0 121 54 121 121 0 67-54 122-121 122z" horiz-adv-x="1000" />

<glyph glyph-name="comment" unicode="&#xe820;" d="M208 370c0 127 131 230 292 230 161 0 292-103 292-230 0-126-131-229-292-229-157 0-286 98-292 221l0 8z m620-326l-1 3-7 10c-16 26-52 91-25 119l-2 0c51 53 82 121 82 194 0 173-168 313-375 313-207 0-375-140-375-313 0-172 168-313 375-313 59 0 115 12 165 33 42-43 95-66 135-72l0 0c2-1 4-1 7-1 12 0 21 9 21 21 0 2 0 4 0 6z m-370 306c22 0 39-16 42-37l0-5c0-23-18-41-42-41h-125c-23 0-41 18-41 41 0 23 18 42 41 42h125z m209 125c21 0 39-16 41-37l0-5c0-23-19-41-41-41h-334c-23 0-41 18-41 41 0 23 19 42 41 42h334z" horiz-adv-x="1000" />

<glyph glyph-name="cross" unicode="&#xe821;" d="M221 630c15 15 38 16 55 3l4-3 220-221 221 221c15 15 38 16 55 3l4-3c15-16 16-39 3-55l-3-4-221-221 221-220c15-16 16-39 3-55l-3-4c-16-15-39-17-55-4l-4 4-221 220-220-220c-16-15-39-17-55-4l-4 4c-15 15-17 38-4 55l4 4 220 220-220 221c-15 15-17 38-4 55l4 4z" horiz-adv-x="1000" />

<glyph glyph-name="label" unicode="&#xe822;" d="M230 528l-25-175c-1-13 3-26 12-36l287-287c17-16 43-16 59 0l236 236c16 16 16 43 0 59l-287 287c-9 9-23 14-36 12l-175-25c-37-5-65-34-71-71z m121-50c27 27 71 27 98 0 28-27 28-71 0-98-27-27-71-27-98 0-27 27-27 71 0 98z" horiz-adv-x="1000" />

<glyph glyph-name="search" unicode="&#xe823;" d="M438 725c172 0 312-140 312-312 0-72-24-139-65-192l164-167c16-16 16-42 0-59-16-15-39-15-55-3l-4 4-164 167c-53-40-118-63-188-63-173 0-313 140-313 313 0 172 140 312 313 312z m0-83c-127 0-230-103-230-229 0-127 103-230 230-230 126 0 229 103 229 230 0 126-103 229-229 229z" horiz-adv-x="1000" />

<glyph glyph-name="shortcut" unicode="&#xe824;" d="M792 58v250h83v-250c0-46-37-83-83-83h-584c-46 0-83 37-83 83v584c0 46 37 83 83 83h250v-83h-250v-584h584z m-334 667v-83h-250v-584h584v250h83v-250c0-44-34-80-77-83l-6 0h-584c-44 0-80 34-83 77l0 6v584c0 44 34 80 77 83l6 0h250z m209 0l169 0 5-1 5-1 5-2 4-2 4-3 4-3 4-5 3-4 2-5 2-5 1-4 0-4 0-3v-166c0-23-19-42-42-42-21 0-39 16-41 37l0 5v66l-262-262c-16-15-39-17-55-4l-4 4c-15 15-17 38-4 55l4 4 262 262h-66c-22 0-39 16-42 37l0 4c0 23 19 42 42 42z" horiz-adv-x="1000" />

<glyph glyph-name="selection" unicode="&#xe825;" d="M292 642c-8 0-15-1-22-3-22-6-45 7-51 29-6 23 7 45 30 51 13 4 28 6 43 6h34c23 0 42-19 42-42 0-23-19-41-42-41h-34z m132 41c0 23 18 42 41 42h70c23 0 41-19 41-42 0-23-18-41-41-41h-70c-23 0-41 18-41 41z m208 0c0 23 19 42 42 42h34c15 0 30-2 44-6 22-6 35-28 29-51-6-22-29-35-51-29-7 2-14 3-22 3h-34c-23 0-42 18-42 41z m-450-52c22-6 35-29 29-51-2-7-3-14-3-22v-34c0-23-18-42-41-42-23 0-42 19-42 42v34c0 15 2 30 6 44 6 22 28 35 51 29z m636 0c23 6 45-7 51-29 4-14 6-29 6-44v-34c0-23-19-42-42-42-23 0-41 19-41 42v34c0 8-1 15-3 22-6 22 7 45 29 51z m15-205c23 0 42-18 42-41v-70c0-23-19-41-42-41-23 0-41 18-41 41v70c0 23 18 41 41 41z m-666 0c23 0 41-18 41-41v-70c0-23-18-41-41-41-23 0-42 18-42 41v70c0 23 19 41 42 41z m666-208c23 0 42-19 42-42v-34c0-15-2-30-6-43-6-23-28-36-51-30-22 6-35 29-29 51 2 7 3 14 3 22v34c0 23 18 42 41 42z m-666 0c23 0 41-19 41-42v-34c0-8 1-15 3-22 6-22-7-45-29-51-23-6-45 7-51 30-4 13-6 28-6 43v34c0 23 19 42 42 42z m52-186c6 22 29 35 51 29 7-2 14-3 22-3h34c23 0 42-18 42-41 0-23-19-42-42-42h-34c-15 0-30 2-43 6-23 6-36 28-30 51z m562 0c6-23-7-45-29-51-14-4-29-6-44-6h-34c-23 0-42 19-42 42 0 23 19 41 42 41h34c8 0 15 1 22 3 22 6 45-7 51-29z m-357-15c0 23 18 41 41 41h70c23 0 41-18 41-41 0-23-18-42-41-42h-70c-23 0-41 19-41 42z" horiz-adv-x="1000" />

<glyph glyph-name="box" unicode="&#xe826;" d="M208 725c-46 0-83-37-83-83v-584c0-46 37-83 83-83h584c46 0 83 37 83 83v584c0 46-37 83-83 83h-584z m0-83h584v-584h-584l0 584z" horiz-adv-x="1000" />

<glyph glyph-name="circle" unicode="&#xe827;" d="M500 767c-230 0-417-187-417-417 0-230 187-417 417-417 230 0 417 187 417 417 0 230-187 417-417 417z m0-84c179 0 333-154 333-333 0-179-154-333-333-333-179 0-333 154-333 333 0 179 154 333 333 333z" horiz-adv-x="1000" />

<glyph glyph-name="priority" unicode="&#xe828;" d="M916 606l0 0 0 1-197 196c-11 11-30 11-41 0l-197-196c-8-9-10-22-6-32 4-11 15-19 27-19h89v-206c0-16 13-29 29-29h157c16 0 29 13 29 29v206h89c12 0 22 7 27 19 4 11 2 23-6 31z m-139 9c-16 0-29-13-29-29v-207h-99v207c0 16-13 29-29 29h-47l125 126 126-126h-47z m-275-471h-88v206c0 16-13 29-30 29h-157c-16 0-29-13-29-29v-206h-89c-11 0-22-7-27-19-4-11-2-23 7-31l196-197c6-6 14-9 21-9 8 0 15 3 21 9l0 0 0 0 196 197c9 8 11 21 7 31-5 11-16 19-28 19z m-322-59h47c16 0 30 13 30 29v207h98v-207c0-16 13-29 29-29h48l-126-126-126 126z" horiz-adv-x="1000" />

<glyph glyph-name="product" unicode="&#xe829;" d="M889 248l-128 128c-1 0-1 0-2 1 0 0-1 1-1 1-2 1-3 2-4 2 0 0 0 0-1 1l-256 106c-5 2-11 2-16 0l-256-106c0 0 0-1-1-1 0 0 0 0 0 0-1 0-2-1-3-2-1 0-1-1-2-1 0 0 0 0 0 0-1 0-1 0-1-1l-128-128c-5-5-7-12-6-19 2-7 6-13 13-16l115-47v-146c0-9 5-17 13-20l256-107c0 0 1 0 1 0 2-1 5-1 7-1 3 0 5 0 8 1 0 0 0 0 1 0l256 107c8 4 13 11 13 20v146l115 48c7 2 11 8 13 15 1 7-1 14-6 19z m-400 196l201-83-201-84-200 84 200 83z m-251-108l5-3 209-86-96-96-115 48-98 41 95 96z m16-189l99-41c3-1 5-1 8-1 6 0 11 2 15 6l92 91v-258l-214 89v114z m470-114l-213-89v259l91-92c4-4 10-6 16-6 2 0 5 0 8 1l98 41v-114z m13 166c0 0 0 0 0 0l-115-48-95 96 213 89 96-96-99-41z m-327 445l-11-66c-1-8 2-16 8-21 4-3 9-4 13-4 3 0 7 1 10 2l59 32 60-32c7-3 16-3 22 2 7 5 10 13 9 21l-12 66 48 47c6 6 8 14 6 22-3 8-9 14-18 15l-66 9-30 60c-7 15-31 15-38 0l-29-60-67-9c-8-1-15-7-17-15-3-8-1-16 5-22l48-47z m48 52c7 1 13 6 16 12l15 31 16-31c3-6 9-11 16-12l35-5-26-24c-5-5-7-12-6-19l6-35-31 16c-3 2-7 3-10 3-3 0-7-1-10-3l-31-16 6 35c1 7-1 14-6 19l-26 24 36 5z m-320-130l-11-66c-2-8 2-16 8-21 7-4 16-5 23-2l59 32 59-32c4-1 7-2 10-2 5 0 9 1 13 4 7 5 10 13 9 21l-12 66 48 47c6 6 8 14 6 22-3 8-10 13-18 14l-66 10-30 60c-3 7-11 12-19 12-8 0-16-5-19-12l-30-60-66-10c-8-1-15-6-18-14-2-8 0-16 6-22l48-47z m47 53c7 1 13 5 16 11l16 32 16-32c3-6 9-10 16-11l34-6-25-24c-5-5-7-12-6-19l6-34-31 16c-6 3-14 3-20 0l-31-16 6 34c1 7-1 14-6 19l-26 24 35 6z m497-53l-11-66c-1-8 2-16 8-21 7-4 16-5 23-2l59 32 60-32c3-1 6-2 10-2 4 0 8 1 12 4 7 5 10 13 9 21l-12 66 48 47c6 6 8 14 6 22-3 8-9 13-18 14l-66 10-30 60c-3 7-11 12-19 12-8 0-15-5-19-12l-30-60-66-10c-8-1-15-6-17-14-3-8-1-16 5-22l48-47z m48 53c7 1 13 5 16 11l15 32 16-32c3-6 9-10 16-11l35-6-26-24c-5-5-7-12-6-19l6-34-31 16c-6 3-14 3-20 0l-31-16 6 34c1 7-1 14-6 19l-25 24 35 6z" horiz-adv-x="1000" />

<glyph glyph-name="more-vertical" unicode="&#xe82a;" d="M500 267c46 0 83 37 83 83 0 46-37 84-83 84-46 0-83-38-83-84 0-46 37-83 83-83z m0 336c46 0 83 37 83 83 0 46-37 83-83 83-46 0-83-37-83-83 0-46 37-83 83-83z m0-671c46 0 83 37 83 83 0 47-37 84-83 84-46 0-83-37-83-84 0-46 37-83 83-83z" horiz-adv-x="1000" />

<glyph glyph-name="add-square" unicode="&#xe82b;" d="M859 694h-656c-8 0-15-7-15-16v-656c0-9 7-16 15-16h656c9 0 16 7 16 16v656c0 9-7 16-16 16z m-656 94h656c61 0 110-49 110-110v-656c0-61-49-110-110-110h-656c-60 0-109 49-109 110v656c0 61 49 110 109 110z m328-188c26 0 47-21 47-47v-156h156c26 0 47-21 47-47 0-26-21-47-47-47h-156v-156c0-26-21-47-47-47-26 0-47 21-47 47v156h-156c-26 0-47 21-47 47 0 26 21 47 47 47h156v156c0 26 21 47 47 47z" horiz-adv-x="1063" />

<glyph glyph-name="bin-filled" unicode="&#xe82c;" d="M792 517l-78-466c-3-20-21-34-41-34h-346c-20 0-38 14-41 35l-78 465h584z m-417 146c0 11 10 20 21 20h209c11 0 20-9 20-20v-21h167c21 0 39-16 41-37l0-5v-42h-666v42c0 21 16 39 37 41l4 1h167v21z" horiz-adv-x="1000" />

<glyph glyph-name="file-filled" unicode="&#xe82d;" d="M532 725c17 0 34-5 48-15l6-4 211-177c8-7 13-16 15-27l0-5v-21l1-43v-375c0-44-34-80-78-83l-6 0h-416c-44 0-80 34-84 77l0 6v584c0 44 34 80 77 83l7 0h219z m-10-83l-1-133c0-21 16-39 36-41l5-1h167l-207 175z" horiz-adv-x="1042" />

<glyph glyph-name="note" unicode="&#xe82e;" d="M63 571c0 51 40 92 91 92h651c50 0 91-41 91-92v-442c0-51-41-91-91-91h-651c-51 0-91 40-91 91v442z m91 13c-7 0-13-5-13-13v-442c0-7 6-13 13-13h651c7 0 13 6 13 13v442c0 8-6 13-13 13h-651z m91-143c0 22 17 39 39 39h364c22 0 40-17 40-39 0-21-18-39-40-39h-364c-22 0-39 18-39 39z m39-117c-22 0-39-17-39-39 0-22 17-39 39-39h208c22 0 39 17 39 39 0 22-17 39-39 39h-208z" horiz-adv-x="1000" />

<glyph glyph-name="image" unicode="&#xe830;" d="M125 642c0 46 37 83 83 83h584c46 0 83-37 83-83v-584c0-46-37-83-83-83h-584c-46 0-83 37-83 83v584z m313-479l-63 62-125-125h500v113l-125 137-187-187z m-105 270c46 0 84 38 84 84 0 46-38 83-84 83-46 0-83-37-83-83 0-46 37-84 83-84z" horiz-adv-x="1000" />

<glyph glyph-name="area" unicode="&#xe831;" d="M519 364c72 0 131 59 131 132 0 72-59 131-131 131-73 0-132-59-132-131 0-73 59-132 132-132z m0 209c42 0 77-35 77-77 0-43-35-77-77-77-43 0-78 34-78 77 0 42 35 77 78 77z m428-592l-101 217c-14 29-43 48-76 48h-52l42 51 2 3c45 56 69 123 69 196 0 172-140 312-313 312-172 0-313-140-313-312 0-73 25-141 69-196l3-3c0 0 0-1 1-1l41-50h-53c-33 0-62-19-76-48l-101-217c-9-20-7-42 4-60 12-19 32-29 53-29h745c21 0 41 10 52 29 12 18 13 40 4 60z m-428 786c149 0 271-122 271-271 0-63-21-122-61-172l-210-254-208 251-2 3c0 0 0 0-1 1l0 0c-40 49-60 108-60 171 0 149 121 271 271 271z m-253-563h88l149-180c4-5 9-8 16-8 6 0 12 3 16 8l149 180h35c16-32 64-136 40-210-8-27-25-47-51-61h-223c2 35-12 96-112 149l-153 81 8 17c7 15 22 24 38 24z m-138-261c-4 6-4 13-1 20l76 162 151-80c83-44 91-91 89-112h-297c-7 0-14 4-18 10z m780 0c-4-6-10-10-17-10h-117c11 14 20 30 25 48 24 78-12 174-34 223h5c16 0 31-9 38-23l101-218c4-7 3-14-1-20z" horiz-adv-x="1000" />

<glyph glyph-name="data-lead" unicode="&#xe832;" d="M125 517h750c23 0 42-19 42-42v-250c0-23-19-42-42-42h-750c-23 0-42 19-42 42v250c0 23 19 42 42 42z m729-250v166h-708v-166h708z m-729 500h750c23 0 42-19 42-42v-250c0-23-19-42-42-42h-750c-23 0-42 19-42 42v250c0 23 19 42 42 42z m729-250v166h-708v-166h708z m-104-125c23 0 42-19 42-42 0-21-16-39-37-41l-5-1h-250c-23 0-42 19-42 42 0 21 16 39 37 41l5 1h250z m2 250c23 0 42-19 42-42 0-21-16-39-37-41l-5-1h-250c-23 0-42 19-42 42 0 21 16 39 37 41l5 1h250z m-460-292c0-21-16-39-37-41l-5-1c-23 0-42 19-42 42 0 21 16 39 37 41l5 1c23 0 42-19 42-42z m-167-83h750c23 0 42-19 42-42v-250c0-23-19-42-42-42h-750c-23 0-42 19-42 42v250c0 23 19 42 42 42z m729-250v166h-708v-166h708z m-102 125c23 0 42-19 42-42 0-21-16-39-37-41l-5-1h-250c-23 0-42 19-42 42 0 21 16 39 37 41l5 1h250z m-460-42c0-21-16-39-37-41l-5-1c-23 0-42 19-42 42 0 21 16 39 37 41l5 1c23 0 42-19 42-42z m0 500c0-21-16-39-37-41l-5-1c-23 0-42 19-42 42 0 21 16 39 37 41l5 1c23 0 42-19 42-42z" horiz-adv-x="1000" />

<glyph glyph-name="stopwatch" unicode="&#xe833;" d="M524 362l84 84c18 18 48 18 66 0 18-19 18-48 0-67l-83-83c2-8 3-16 3-24 0-52-42-94-94-94-52 0-94 42-94 94 0 52 42 94 94 94 8 0 17-1 24-4z m-165 441c0 26 21 47 47 47h188c26 0 47-21 47-47 0-26-21-47-47-47h-47v-62c0-1 0-2 0-3 81-9 156-41 216-89l1 0 47 47c18 18 48 18 66 0 18-18 18-48 0-66l-47-47 0-1c57-72 92-163 92-263 0-233-189-422-422-422-233 0-422 189-422 422 0 100 35 191 92 263l0 1-47 47c-18 18-18 48 0 66 18 18 48 18 66 0l47-47 1 0c60 48 135 80 216 89 0 1 0 2 0 3v62h-47c-26 0-47 21-47 47z m141-859c181 0 328 147 328 328 0 181-147 328-328 328-181 0-328-147-328-328 0-181 147-328 328-328z" horiz-adv-x="1000" />

<glyph glyph-name="slider-h" unicode="&#xe834;" d="M667 308c54 0 101-35 118-84 2 1 4 1 7 1h41c22 0 39-16 42-37l0-5c0-23-18-41-42-41h-41c-3 0-5 0-7 0-17-49-64-84-118-84-55 0-101 35-118 84-3 0-5 0-7 0h-375c-23 0-42 18-42 41 0 23 19 42 42 42h375c2 0 4 0 7-1 17 49 63 84 118 84z m0-83c-23 0-42-19-42-42 0-23 19-41 42-41 23 0 41 18 41 41 0 23-18 42-41 42z m-334 417c55 0 101-35 118-84 3 0 5 0 7 0h376c21 0 38-16 41-36l0-5c0-23-18-42-41-42h-376c-2 0-4 0-7 1-17-49-63-84-118-84-54 0-101 35-118 84-2-1-4-1-7-1h-41c-23 0-42 19-42 42 0 23 18 41 42 41h41c3 0 5 0 7 0 17 49 64 84 118 84z m0-84c-23 0-41-18-41-41 0-23 18-42 41-42 23 0 42 19 42 42 0 23-19 41-42 41z" horiz-adv-x="1000" />

<glyph glyph-name="sort" unicode="&#xe835;" d="M333 642c22 0 39-16 42-37l0-5 0-396 51 50c15 16 40 17 57 4l4-4c16-15 17-40 4-57l-4-4-123-122c-16-16-40-17-57-4l-4 4-124 122c-17 17-17 44 0 61 16 16 41 17 58 4l4-4 51-50 0 396c0 21 16 39 37 41l4 1z m334-584c-22 0-39 16-42 37l0 5 0 396-51-50c-15-16-40-17-57-4l-4 4c-16 16-17 40-4 57l4 4 123 122c16 16 40 17 57 4l5-4 123-122c17-17 17-44 0-61-16-16-41-17-58-4l-4 4-51 50 0-396c0-21-16-39-36-41l-5-1z" horiz-adv-x="1000" />

<glyph glyph-name="building" unicode="&#xe836;" d="M94-41c0-8 7-15 15-15h141v78c0 26 21 47 47 47h156c26 0 47-21 47-47v-78h141c8 0 15 7 15 15v782c0 8-7 15-15 15h-532c-8 0-15-7-15-15v-782z m15-109c-60 0-109 49-109 109v782c0 60 49 109 109 109h532c60 0 109-49 109-109v-782c0-5 0-10-1-15h142c8 0 15 7 15 15v373c0 5-2 10-7 13l-66 44c-21 15-27 44-13 65 15 22 44 28 65 13l66-44c31-20 49-54 49-91v-373c0-60-49-109-109-109h-219c-4 0-8 1-12 2-7-1-13-2-19-2h-188c-26 0-47 21-47 47v78h-62v-78c0-26-21-47-47-47h-188z m79 766c0 26 21 47 46 47h32c26 0 47-21 47-47 0-26-21-47-47-47h-32c-25 0-46 21-46 47z m46-141c-25 0-46-21-46-47 0-26 21-47 46-47h32c26 0 47 21 47 47 0 26-21 47-47 47h-32z m-46-234c0 26 21 47 46 47h32c26 0 47-21 47-47 0-26-21-47-47-47h-32c-25 0-46 21-46 47z m296 47c-25 0-46-21-46-47 0-26 21-47 46-47h32c26 0 47 21 47 47 0 26-21 47-47 47h-32z m-46 140c0 26 21 47 46 47h32c26 0 47-21 47-47 0-26-21-47-47-47h-32c-25 0-46 21-46 47z m46 235c-25 0-46-21-46-47 0-26 21-47 46-47h32c26 0 47 21 47 47 0 26-21 47-47 47h-32z" horiz-adv-x="1000" />

<glyph glyph-name="users" unicode="&#xe837;" d="M344 631c-33 0-65-13-89-36-23-24-36-56-36-89 0-33 13-65 36-88 24-24 56-37 89-37 33 0 65 13 88 37 24 23 37 55 37 88 0 33-13 65-37 89-23 23-55 36-88 36z m-219-125c0 37 9 72 26 104 17 32 42 59 73 79 30 20 65 32 101 35 36 3 72-2 106-17 33-14 62-37 85-65 22-29 37-62 43-98 7-36 4-72-8-107-11-34-31-65-57-90 49-24 93-60 126-104 33-45 55-97 63-151 2-13-1-25-8-35-7-10-18-17-31-19-12-2-25 1-35 8-10 8-16 19-18 31-10 59-40 112-85 151-45 38-103 59-162 59-60 0-117-21-162-59-46-39-76-92-85-151-1-6-3-12-6-17-4-5-8-10-13-14-5-3-10-6-16-7-6-2-13-2-19-1-6 1-12 3-17 6-5 4-10 8-13 13-4 5-7 11-8 17-1 6-2 12-1 18 9 54 31 106 64 151 33 44 76 80 126 104-22 20-39 45-51 72-12 28-18 57-18 87z m563 94c-13 0-25-5-34-14-8-8-13-20-13-33 0-12 5-24 13-33 9-9 21-14 34-14 21 0 41-7 58-20 16-13 28-31 33-52 5-21 2-42-7-61-9-20-24-35-43-44-8-4-14-10-19-18-4-7-7-16-7-24v-22c0-11 4-21 10-29 7-9 16-15 26-17 75-18 135-75 158-148 1-6 4-12 8-17 4-4 9-8 14-11 6-3 12-5 18-5 6-1 12 0 18 1 6 2 12 5 16 9 5 4 9 9 12 14 3 6 5 12 5 18 1 6 0 12-2 18-12 41-33 78-60 111-28 32-62 59-100 77 25 27 41 61 47 97 5 35 1 72-14 105-15 34-39 62-69 82-31 19-66 30-102 30z" horiz-adv-x="1000" />

<glyph glyph-name="file-bookmark" unicode="&#xe838;" d="M188 741c0 8 7 15 15 15h531c9 0 16-7 16-15v-234c0-26 21-47 47-47 26 0 47 21 47 47v234c0 60-49 109-110 109h-531c-60 0-109-49-109-109v-719c0-61 49-110 109-110h198c26 0 47 21 47 47 0 26-21 47-47 47h-198c-8 0-15 7-15 16v719z m140-141c-26 0-47-21-47-47 0-26 21-47 47-47h281c26 0 47 21 47 47 0 26-21 47-47 47h-281z m-47-234c0 26 21 47 47 47h63c26 0 47-21 47-47 0-26-21-47-47-47h-63c-26 0-47 21-47 47z m357-53v-323l112 113 113-113v323h-225z m-75 32c0 24 19 43 42 43h290c24 0 43-19 43-43v-433c0-38-46-57-73-30l-115 115-115-115c-27-27-72-8-72 30v433z" horiz-adv-x="1000" />

<glyph glyph-name="user-simple" unicode="&#xe839;" d="M644 322c42 30 73 73 90 122 16 50 16 103 0 152-16 50-47 93-89 124-42 30-93 47-145 47-52 0-103-17-145-47-42-31-73-74-89-124-16-49-16-102 0-152 17-49 48-92 90-122-68-29-127-77-168-139-41-61-63-134-63-208 0-11 4-22 12-30 8-7 19-12 30-12 11 0 21 5 29 12 8 8 12 19 12 30 0 77 31 152 86 206 55 55 129 86 206 86 77 0 152-31 206-86 55-54 86-129 86-206 0-11 4-22 12-30 8-7 18-12 29-12 11 0 22 5 30 12 8 8 12 19 12 30 0 74-22 147-63 208-41 62-100 110-168 139z m-144 361c32 0 64-9 90-27 27-18 48-43 60-73 12-30 16-62 9-94-6-32-21-60-44-83-23-23-52-38-83-45-32-6-64-3-94 10-30 12-55 33-73 59-18 27-27 59-27 91 0 43 17 84 47 114 31 31 72 48 115 48z" horiz-adv-x="1000" />

<glyph glyph-name="adjustment" unicode="&#xe83a;" d="M229 225c31 0 62-10 87-29 25-19 43-45 52-75h507c11 0 22-5 30-13 7-7 12-18 12-29 0-11-5-22-12-30-8-8-19-12-30-12h-507c-8-26-22-49-43-67-20-18-45-30-71-35-27-4-54-1-79 9-25 10-47 27-63 48-16 22-26 48-28 75-2 27 3 54 15 78 12 24 31 44 54 58 23 15 49 22 76 22z m0-209c12 0 24 4 35 11 10 7 18 16 23 28 4 11 6 24 3 36-2 12-8 23-17 32-9 9-20 15-32 17-12 3-25 1-36-3-11-5-21-13-28-23-7-11-11-23-11-35 0-17 7-33 19-45 11-11 27-18 44-18z m542 459c-31 0-62 10-87 29-25 19-43 45-52 76h-507c-11 0-22 4-29 12-8 8-13 18-13 29 0 11 5 22 13 30 7 8 18 12 29 12h507c7 26 22 49 43 67 20 18 45 30 71 35 27 4 54 1 79-9 25-10 47-27 63-48 16-22 26-48 28-75 2-26-3-54-15-78-12-24-31-44-54-58-23-14-49-22-76-22z m0 209c-12 0-24-4-34-11-11-7-18-17-23-28-5-12-6-24-3-36 2-12 8-23 17-32 8-9 19-15 31-17 13-3 25-1 36 3 12 5 22 13 29 23 7 10 10 22 10 34 1 9-1 17-4 25-3 8-8 15-14 21-6 6-13 10-21 13-7 4-16 5-24 5z m104-272h-236c-9 30-27 57-52 76-26 19-56 29-87 29-32 0-62-10-87-29-25-19-44-46-53-76h-235c-11 0-22-4-29-12-8-8-13-18-13-29 0-12 5-22 13-30 7-8 18-12 29-12h235c9-30 28-56 53-75 25-19 55-29 86-29 32 0 62 10 87 29 25 19 43 45 52 75h237c11 0 22 4 30 12 7 8 12 18 12 30 0 11-5 21-12 29-8 8-19 12-30 12z m-375-104c-16 0-32 7-44 19-12 11-19 27-19 44 0 12 4 24 11 34 7 11 16 19 28 23 11 5 24 6 36 4 12-2 23-8 32-17 9-9 15-20 17-32 2-12 1-25-4-36-4-12-12-22-23-29-10-6-22-10-34-10l0 0z" horiz-adv-x="1000" />

<glyph glyph-name="bed" unicode="&#xe83b;" d="M845 57h-689c-19 0-37 7-51 21-13 13-21 31-21 50v182c0 19 8 37 21 50 14 13 32 21 51 21h689c18 0 37-8 50-21 13-13 21-31 21-50v-182c0-19-8-37-21-50-13-14-32-21-50-21z m-689 262c-3-1-5-1-7-3-1-2-2-4-2-6v-182c0-2 1-4 2-6 2-2 4-3 7-3h689c2 0 4 1 6 3 1 2 2 4 2 6v182c0 2-1 4-2 6-2 2-4 2-6 3h-689z m655 3c-8 0-16 3-22 9-6 6-9 14-9 22v305l-558 2-2-307c0-8-3-16-9-22-6-6-14-9-22-9-8 0-16 3-22 9-6 6-9 14-9 22v305c0 18 7 34 19 46 12 12 28 19 45 19h556c17 0 33-7 45-19 13-12 19-28 19-46v-305c0-4 0-8-2-12-2-3-4-7-7-10-3-3-6-5-10-6-4-2-8-3-12-3z m-157 0c-8 0-16 3-22 9-6 6-9 14-9 22v146c0 1 0 2-1 3 0 1-1 2-1 2-1 1-2 2-3 2-1 0-2 1-3 1h-230c-1 0-2-1-3-1-1 0-2-1-2-2-1 0-2-1-2-2-1-1-1-2-1-3v-146c0-8-3-16-9-22-6-6-14-9-22-9-8 0-16 3-22 9-6 6-9 14-9 22v146c0 18 7 36 20 49 13 14 31 21 50 21h230c19 0 37-7 50-21 13-13 20-31 20-49v-146c0-8-3-16-9-22-6-5-14-9-22-9z m-443-345c-8 0-16 3-22 9-6 6-9 14-9 22v73c0 8 3 16 9 22 6 6 14 9 22 9 8 0 16-3 22-9 6-6 9-14 9-22v-73c0-8-3-16-9-22-6-6-14-9-22-9z m578 0c-8 0-16 3-22 9-6 6-9 14-9 22v73c0 8 3 16 9 22 6 6 14 9 22 9 9 0 17-3 22-9 6-6 10-14 10-22v-73c0-8-4-16-10-22-5-6-13-9-22-9z m96 211h-769c-9 0-17 3-23 9-5 6-9 14-9 22 0 8 4 16 9 22 6 6 14 9 23 9h769c8 0 16-3 22-9 5-6 9-14 9-22 0-8-4-16-9-22-6-6-14-9-22-9z" horiz-adv-x="1000" />

<glyph glyph-name="calendar-alt" unicode="&#xe83c;" d="M887 457h-751c-8 0-16 3-21 9-6 6-9 13-9 21 0 8 3 15 9 21 5 6 13 9 21 9h751c7-1 14-4 20-9 5-6 8-13 8-21 0-8-3-15-8-21-6-5-13-8-20-9v0z m-173-160h-428c-8 0-15 3-21 9-5 5-8 13-8 21 0 8 3 15 8 21 6 5 13 8 21 8h428c8 0 15-3 21-8 5-6 8-13 8-21 0-8-3-16-8-21-6-6-13-9-21-9z m-135-163h-293c-7 0-15 3-20 9-5 6-8 13-8 21 0 7 3 15 8 20 5 6 13 9 20 9h293c7 0 15-3 20-9 5-5 8-13 8-20 0-8-3-15-8-21-5-6-13-9-20-9z m287-197h-731c-14 0-27 5-36 15-10 9-15 22-15 36v612c0 13 5 26 15 36 9 9 22 15 36 15h731c13 0 26-6 35-15 10-10 15-23 15-36v-612c0-14-5-27-15-36-9-10-22-15-35-15z m-723 59h714v595h-714v-595z m571 620c-8 0-16 3-21 9-6 5-9 13-9 21v87c0 8 3 16 9 21 5 6 13 9 21 9 8 0 15-3 21-9 5-5 8-13 8-21v-87c0-4 0-8-2-12-1-3-3-6-6-9-3-3-6-5-10-7-3-1-7-2-11-2z m-428 0c-8 0-15 3-21 9-5 5-8 13-8 21v87c0 8 3 16 8 21 6 6 13 9 21 9 8 0 16-3 21-9 6-5 9-13 9-21v-87c0-4-1-8-2-12-2-3-4-6-7-9-2-3-6-5-9-7-4-1-8-2-12-2z" horiz-adv-x="1000" />

<glyph glyph-name="clock" unicode="&#xe83d;" d="M363 109c-7 0-13 2-18 6-5 3-9 8-11 14-3 5-3 12-2 18 1 6 4 11 8 16l129 128v269c0 8 3 16 9 22 6 5 14 9 22 9 8 0 16-4 22-9 6-6 9-14 9-22v-282c0-4-1-8-2-12-2-4-4-7-7-10l-137-137c-3-3-7-6-10-7-4-2-8-3-12-3z m137-173c-82 0-162 24-230 70-68 45-121 110-153 185-31 76-39 159-23 240 16 80 55 154 113 212 58 58 132 97 212 113 81 16 164 8 240-23 75-32 140-85 185-153 46-68 70-148 70-230 0-110-44-215-121-293-78-77-183-121-293-121z m0 766c-70 0-138-21-195-60-58-38-103-93-130-157-27-65-34-135-20-204 14-68 47-131 96-180 49-49 112-82 180-96 69-14 139-7 204 20 64 27 119 72 157 130 39 57 60 125 60 195 0 93-37 183-103 249-66 66-156 103-249 103z" horiz-adv-x="1000" />

<glyph glyph-name="house-front" unicode="&#xe83e;" d="M193 434c-7 0-13 2-18 5-6 4-10 9-12 15-2 6-2 13 0 19 1 6 5 12 10 16l306 250c6 4 13 6 20 6 7 0 14-2 20-6l308-250c7-5 11-13 12-21 0-8-2-17-7-23-6-6-13-11-21-11-9-1-17 1-23 7l-289 233-286-233c-6-5-13-7-20-7z m561-480h-508c-8 0-16 4-22 10-6 5-9 13-9 22v522c0 9 3 17 9 22 6 6 14 10 22 10 8 0 16-4 22-10 6-5 9-13 9-22v-491h445v491c0 9 4 17 9 22 6 6 14 10 23 10 8 0 16-4 22-10 5-5 9-13 9-22v-522c0-9-4-17-9-22-6-6-14-10-22-10z m-138 0h-232c-8 0-16 4-22 10-6 5-9 13-9 22v350c0 9 3 17 9 22 6 6 14 10 22 10h232c8 0 16-4 22-10 5-5 9-13 9-22v-350c0-9-4-17-9-22-6-6-14-10-22-10z m-200 63h168v288h-169l1-288z m127 121c13 0 23 10 23 23 0 13-10 24-23 24-13 0-24-11-24-24 0-13 11-23 24-23z" horiz-adv-x="1000" />

<glyph glyph-name="phone-outline" unicode="&#xe83f;" d="M724-67h-6c-161 20-311 94-426 209-115 115-188 265-209 426v6 6c8 37 24 71 47 101 23 30 52 54 85 72l9 3 41 9c15 3 32 2 46-5 14-6 26-17 34-31 24-52 53-103 88-149l5-9c6-17 6-35 0-52-6-17-17-31-32-41 0 0-32-30-57-52 24-49 57-93 96-132 38-38 82-71 131-95l55 60c9 14 24 24 40 30 16 5 34 4 50-2l9-5c45-34 94-63 146-86 15-7 26-19 33-34 8-15 10-32 6-48l-9-41-3-8c-17-33-42-62-72-85-30-22-64-38-101-45l-6-2z m-557 636c20-139 84-268 183-368 100-99 229-163 367-184 45 12 83 41 107 80 0 5 3 15 6 27-48 23-94 50-137 81-3-3-52-56-73-80l-13-15h-20c-76 4-182 104-202 125-21 21-121 125-125 203v20l15 13c24 22 77 71 77 71l3 2c-31 43-58 89-80 138l-28-6c-20-12-37-27-51-45-14-19-24-40-29-62z" horiz-adv-x="1000" />

<glyph glyph-name="cross-circle-outline" unicode="&#xe840;" d="M379 199c-6 0-12 2-17 5-5 3-8 8-11 13-2 6-3 12-1 18 1 5 4 11 8 15l242 242c3 3 6 5 10 7 4 1 7 2 11 2 4 0 8-1 12-2 3-2 7-4 9-7 3-2 5-6 7-9 1-4 2-8 2-12 0-4-1-7-2-11-2-4-4-7-7-10l-242-242c-3-3-6-5-10-7-3-1-7-2-11-2z m242 0c-7 0-15 3-20 9l-243 242c-3 3-5 6-7 10-1 4-2 7-2 11 0 4 1 8 2 12 2 3 4 7 7 9 2 3 6 5 9 7 4 1 8 2 12 2 4 0 8-1 11-2 4-2 7-4 10-7l242-242c5-4 7-10 9-15 1-6 0-12-2-18-2-5-6-10-11-13-5-3-11-5-17-5z m-121 508c71 0 140-21 198-60 59-39 105-95 132-160 27-66 34-137 20-207-13-69-47-133-97-182-50-50-114-84-183-98-70-14-141-7-207 20-65 27-121 73-160 132-39 58-60 127-60 198 0 95 38 186 105 252 67 67 157 105 252 105z m0 60c-82 0-163-25-231-71-69-45-122-110-154-186-31-77-40-160-24-241 16-81 56-155 114-214 59-58 133-98 214-114 81-16 164-8 240 24 77 32 142 85 187 154 46 68 71 149 71 231 0 55-11 109-32 160-21 50-52 96-90 135-39 38-85 69-136 90-50 21-104 32-159 32z" horiz-adv-x="1000" />

<glyph glyph-name="whatsapp" unicode="&#xe841;" d="M529 767c-75 0-148-21-212-59-64-38-116-93-152-159-36-66-53-140-50-215 3-75 26-147 66-210l-62-125c0 0 0-3 0-4-1-3-1-7-2-10-1-9 1-18 5-26 4-8 11-14 19-18 5-2 10-3 15-4 5 1 11 2 16 4l150 51c55-33 117-53 180-58 64-4 128 6 188 30 59 24 112 62 154 110 42 48 73 106 90 168 16 62 18 127 6 190-13 63-40 122-79 173-39 51-89 92-147 120-58 28-121 42-185 42z m0-750c-65 0-128 19-182 55h-3-4c-3 1-6 2-10 3h-6c-3 0-5 0-8 0h-5-3l-69-23 28 57c0 2 0 4 0 6 1 2 2 5 2 8 0 2 0 5 0 8 1 3 1 5 0 8 0 2-2 5-3 7 0 2 0 4-3 6-43 57-66 127-66 198 0 66 20 130 56 185 37 55 88 98 149 123 61 25 127 32 192 19 64-13 123-45 170-91 46-47 78-106 90-171 13-65 7-132-18-193-26-60-68-112-123-149-54-37-118-56-184-56z m202 228c-31 14-60 31-87 51-12 5-24-10-24-10 0 0-27-30-39-42-36 2-97 62-97 62 0 0-61 62-63 97 14 12 42 39 42 39 0 0 16 12 10 24-19 27-35 55-49 85-2 2-5 5-8 6-3 1-7 2-10 1l-22-5c-16-8-29-19-40-33-10-14-18-30-21-47 10-84 49-163 109-223 60-60 139-98 223-108 17 3 33 10 47 21 14 10 25 23 33 38l4 23c1 4 1 8 0 12-2 4-5 7-8 9z" horiz-adv-x="1063" />

<glyph glyph-name="bin" unicode="&#xe84c;" d="M414 433c-11 0-22-4-30-11-7-8-12-18-12-29v-253c0-10 5-21 12-28 8-8 19-12 30-12 11 0 21 4 29 12 8 7 12 18 12 28v253c0 11-4 21-12 29-8 7-18 11-29 11z m174 0c-12 0-22-4-30-11-8-8-12-18-12-29v-253c0-10 4-21 12-28 8-8 18-12 30-12 11 0 21 4 29 12 8 7 12 18 12 28v253c0 11-4 21-12 29-8 7-18 11-29 11z m287 175h-136v75c0 22-9 44-24 59-16 16-37 25-59 25h-311c-22 0-43-9-58-25-16-15-25-37-25-59v-75h-137c-11 0-22-5-29-13-8-7-13-18-13-29 0-11 5-22 13-30 7-7 18-12 29-12h65v-507c0-22 8-44 24-59 16-16 37-25 59-25h455c22 0 44 9 59 25 16 15 25 37 25 59v507h63c11 0 22 5 30 12 7 8 12 19 12 30 0 11-5 22-12 29-8 8-19 13-30 13z m-530 75h311v-75h-311v75z m383-666h-455v507h455v-507z" horiz-adv-x="1000" />
</font>
</defs>
</svg>
